<svg xmlns="http://www.w3.org/2000/svg" viewBox="0 0 1506.86 589.71"><defs><style>.cls-1{fill:#fff;}</style></defs><title>3</title><g id="Layer_2" data-name="Layer 2"><g id="_3" data-name="3"><polygon class="cls-1" points="0 39.43 73.71 15.43 99.43 39.43 121.71 15.43 161.14 39.43 174.86 27.43 222.86 65.14 258.86 40.29 269.14 65.14 282.86 51.43 308.57 65.14 317.14 40.29 351.43 73.71 382.29 63.43 435.43 89.14 468 24 510.86 89.14 522.86 66.86 557.14 89.14 598.29 52.29 624 104.57 646.29 75.43 680.57 82.29 694.29 66.86 734.86 82.29 754.29 44.57 809.14 73.71 845.14 60 898.29 60 918.86 15.43 970.29 15.43 1014.86 60 1066.29 72 1098.86 39.43 1117.71 66.86 1158.86 15.43 1210.29 73.71 1227.43 80.57 1242.86 60 1272 70.29 1290.86 22.29 1338.86 78.86 1374.86 0 1445.14 75.43 1506.86 589.71 0 574.29 0 39.43"/></g></g></svg>