<svg xmlns="http://www.w3.org/2000/svg" viewBox="0 0 1414.29 637.71"><defs><style>.cls-1{fill:#fff;}</style></defs><title>5</title><g id="Layer_2" data-name="Layer 2"><g id="_5" data-name="5"><polygon class="cls-1" points="0 106.29 48 92.57 89.14 66.86 109.71 77.14 147.43 52.57 185.14 68.57 270.86 0 327.43 94.29 358.29 66.86 414.86 89.14 493.71 70.29 543.43 92.57 608.57 34.29 656.57 87.43 696 63.43 730.29 106.29 783.43 25.71 829.71 75.43 846.86 34.29 937.04 73.71 992.57 24 1050.86 68.57 1080 18.86 1114.29 53.14 1153.71 0 1225.71 51.47 1258.29 44.57 1268.57 53.14 1294.29 51.47 1352.57 90.86 1414.29 637.71 30.74 622.8 0 106.29"/></g></g></svg>