<svg xmlns="http://www.w3.org/2000/svg" viewBox="0 0 1407.57 586.29"><defs><style>.cls-1{fill:#fff;}</style></defs><title>6</title><g id="Layer_2" data-name="Layer 2"><g id="_6" data-name="6"><polygon class="cls-1" points="0 37.71 41.57 37.71 60 8.57 73.71 37.71 87.43 8.57 101.14 37.71 116.57 8.57 128.57 37.71 140.57 8.57 152.57 37.71 164.57 8.57 174.86 37.71 174.86 17.14 188.57 37.71 195.43 23.14 202.29 37.71 214.29 23.14 226.29 37.71 236.57 23.14 248.57 49.71 258.86 29.14 265.71 49.71 281.14 29.14 291.43 49.71 303.43 29.14 315.43 49.71 330.86 29.14 342.86 61.71 349.71 44.57 360 61.71 370.29 42.86 380.57 61.71 396 48 411.43 61.71 418.29 35.14 433.71 61.71 445.71 35.14 459.43 61.71 466.29 44.57 481.71 61.71 490.29 46.29 505.71 61.71 521.14 35.14 531.43 53.14 541.71 35.14 557.14 61.71 576 35.14 588 61.71 600 46.29 612 61.71 620.57 42.86 639.43 61.71 651.43 35.14 658.29 61.71 672 35.14 685.71 61.71 697.71 35.14 711.43 61.71 724.57 44.57 735.43 61.71 742.29 35.14 756 54.86 768 35.14 785.14 49.71 798.86 15.43 821.14 24 821.14 8.57 843.43 35.14 862.29 0 879.43 22.29 900 0 918.19 17.14 927.43 0 948 22.29 961.71 30.86 982.29 0 996 30.86 996 6.86 1016.57 30.86 1023.43 0 1042.29 24 1057.71 6.86 1069.71 30.86 1080 8.57 1098.86 30.86 1105.71 10.29 1124.57 30.86 1134.86 6.86 1152 30.86 1160.57 10.29 1176 30.86 1189.71 13.71 1196.57 30.86 1215.43 24 1227.43 46.29 1227.43 24 1239.43 42.86 1248 18.86 1263.43 42.86 1280.57 12 1296 42.86 1309.71 12 1326.86 44.57 1407.57 586.29 0 526.29 0 37.71"/></g></g></svg>